<svg id="Layer_1" data-name="Layer 1" xmlns="http://www.w3.org/2000/svg" width="1920" height="1080" viewBox="0 0 1920 1080"><defs><style>.cls-1{fill:#ededed;}.cls-2{fill:none;stroke:#000;stroke-miterlimit:10;}.cls-3{fill:#fff;}</style></defs><title>Artboard 1 copy 3</title><polygon class="cls-1" points="1947 1105 -48 1105 -48 886.66 -48 -26 1947 -26 1947 1105"/><line class="cls-2" y1="177.5" x2="1920" y2="177.5"/><line class="cls-2" y1="541.5" x2="1920" y2="541.5"/><line class="cls-2" y1="723.5" x2="1920" y2="723.5"/><line class="cls-2" x1="1019.5" y1="-2" x2="1019.5" y2="1077.5"/><line class="cls-2" x1="1180.5" y1="-2" x2="1180.5" y2="1078.5"/><line class="cls-2" x1="281.5" y1="-1" x2="280.5" y2="1079.5"/><line class="cls-2" x1="576.5" y1="2" x2="576.5" y2="1082"/><line class="cls-2" x1="1" y1="353.5" x2="1921" y2="353.5"/><line class="cls-2" x1="1" y1="905.5" x2="1921" y2="905.5"/><line class="cls-2" x1="138.5" y1="-2.5" x2="138.4" y2="1078.76"/><line class="cls-2" x1="729.5" y1="-0.5" x2="729.9" y2="1078.5"/><line class="cls-2" x1="427.5" x2="427.5" y2="1078.5"/><line class="cls-2" x1="1328.44" y1="2.22" x2="1328.5" y2="1083.5"/><line class="cls-2" x1="869.44" y1="1.22" x2="869.5" y2="1083.5"/><line class="cls-3" x1="1425" y1="978" x2="1424" y2="1082"/><line class="cls-2" x1="1483.65" y1="-3.28" x2="1483.7" y2="1077.99"/><line class="cls-2" x1="1629.65" y1="0.72" x2="1629.7" y2="1081.99"/><line class="cls-2" x1="1777.65" y1="2.72" x2="1777.7" y2="1083.99"/><line class="cls-2" y1="1078.5" x2="1920" y2="1078.5"/></svg>