<svg id="Layer_1" data-name="Layer 1" xmlns="http://www.w3.org/2000/svg" width="1920" height="1080" viewBox="0 0 1920 1080"><defs><style>.cls-1{fill:#ededed;}.cls-2{fill:none;stroke:#000;stroke-miterlimit:10;}.cls-3{fill:#fff;}</style></defs><title>Artboard 1</title><rect class="cls-1" x="1.5" y="2.5" width="1919" height="1079"/><path d="M1920,3V1081H2V3H1920m1-1H1V1082H1921V2Z"/><line class="cls-2" y1="160.5" x2="1920" y2="160.5"/><line class="cls-2" y1="511.5" x2="1920" y2="511.5"/><path d="M252.34,358.52h50q19.68,0,31.78,11.81t12.09,31.13q0,19.31-12.09,31t-31.78,11.72H268.74v53.62h-16.4Zm16.4,14.63v56.43h21.85a113.16,113.16,0,0,0,11.43-.51,77.32,77.32,0,0,0,9.57-1.6,23.94,23.94,0,0,0,7.68-3.09,22.47,22.47,0,0,0,5.54-5.16,19.83,19.83,0,0,0,3.51-7.54,43.25,43.25,0,0,0,1.08-10.22q0-13.5-7.22-20.91t-20.44-7.4Z"/><path d="M413.59,389q20.06,0,32.72,12.47T459,435.77v17q0,21.84-12.75,34.36t-32.62,12.51q-20.35,0-32.91-12.42t-12.56-34.45v-17q0-21.09,12.84-33.94T413.59,389Zm-29.53,48.56V451a43.71,43.71,0,0,0,3.51,18.28,27.15,27.15,0,0,0,10.17,11.91,29,29,0,0,0,15.85,4.21q13.77,0,21.51-9.28T442.84,451V437.55q0-15.66-7.92-25t-21.29-9.33q-13.35,0-21.46,9.42T384.06,437.55Z"/><path d="M493.18,497.83V390.68h15.94v16.59H510a28.69,28.69,0,0,1,9.85-12.66q7.13-5.43,20.15-5.43c1.31,0,3.41.12,6.28.37v14.81A62.67,62.67,0,0,0,538,404q-9.37,0-16,3.61a23.56,23.56,0,0,0-9.75,9.37,27.06,27.06,0,0,0-3.14,13.18v67.68Z"/><path d="M576.81,390.68V363.77h16v26.91h24.37v13.68H592.84v64.41c0,4.44.54,7.83,1.64,10.17a9.12,9.12,0,0,0,5.34,4.88q3.7,1.35,10.74,1.36,4.31,0,8.25-.38V498a71.07,71.07,0,0,1-12.38.75A54.89,54.89,0,0,1,591.29,497a17.06,17.06,0,0,1-9-5.82,23.46,23.46,0,0,1-4.31-9.47A66.48,66.48,0,0,1,576.81,468V404.36H560.4V390.68Z"/><path d="M657.43,497.83V404.36H639.24V390.68h18.19V380q0-15.47,7.69-22.69T690,350.08a95.75,95.75,0,0,1,11.53.66v13.59a90.92,90.92,0,0,0-9.56-.37q-10.12,0-14.34,3.7t-4.22,13.64v9.38h25v13.68h-25v93.47Z"/><path d="M769.09,389q20.05,0,32.72,12.47t12.65,34.31v17q0,21.84-12.75,34.36t-32.62,12.51q-20.36,0-32.91-12.42t-12.56-34.45v-17q0-21.09,12.84-33.94T769.09,389Zm-29.53,48.56V451a43.71,43.71,0,0,0,3.51,18.28,27.15,27.15,0,0,0,10.17,11.91,29,29,0,0,0,15.85,4.21q13.77,0,21.51-9.28T798.34,451V437.55q0-15.66-7.92-25t-21.29-9.33q-13.35,0-21.46,9.42T739.56,437.55Z"/><path d="M847.27,497.83V351.11h16.22V497.83Z"/><path d="M900,357.3a11.56,11.56,0,0,1,3.52-8.67,12,12,0,0,1,20.67,8.67,12.47,12.47,0,0,1-1.55,6.28,10.26,10.26,0,0,1-4.36,4.17,13.22,13.22,0,0,1-6.18,1.46,11.92,11.92,0,0,1-8.58-3.38A11.3,11.3,0,0,1,900,357.3Zm4.13,140.53V390.68h16V497.83Z"/><path d="M1000.56,389q20.06,0,32.72,12.47t12.65,34.31v17q0,21.84-12.75,34.36t-32.62,12.51q-20.35,0-32.91-12.42t-12.56-34.45v-17q0-21.09,12.84-33.94T1000.56,389ZM971,437.55V451a43.71,43.71,0,0,0,3.51,18.28,27,27,0,0,0,10.17,11.91,29,29,0,0,0,15.85,4.21q13.77,0,21.51-9.28t7.74-25.12V437.55q0-15.66-7.93-25t-21.28-9.33q-13.35,0-21.47,9.42T971,437.55Z"/><line class="cls-2" y1="683.5" x2="1920" y2="683.5"/><line class="cls-2" x1="232.5" y1="1" x2="232.5" y2="1081"/><line class="cls-2" x1="472.5" y1="1" x2="472.5" y2="1080.5"/><line class="cls-2" x1="707.5" y1="1" x2="707.5" y2="1081.5"/><line class="cls-2" x1="949.5" x2="949.5" y2="1080"/><line class="cls-2" x1="1424.5" y1="1" x2="1424.5" y2="855.5"/><line class="cls-2" x1="1667.5" y1="1" x2="1667.5" y2="1081"/><line class="cls-2" y1="332.5" x2="1920" y2="332.5"/><line class="cls-2" x1="1180.5" y1="1" x2="1180.5" y2="1081"/><line class="cls-2" y1="855.5" x2="1920" y2="855.5"/><line class="cls-2" x1="117.5" y1="0.5" x2="117.5" y2="1080.5"/><line class="cls-2" x1="1064.5" y1="0.5" x2="1064.68" y2="1080.31"/><line class="cls-2" x1="1302.5" y1="0.5" x2="1302.4" y2="1081.76"/><line class="cls-2" x1="1799.5" y1="1.5" x2="1799.9" y2="1080.5"/><line class="cls-2" x1="1545.5" y1="1.5" x2="1545.5" y2="855.5"/><line class="cls-2" y1="978.5" x2="1921" y2="978.5"/><line class="cls-2" x1="834.59" y1="0.05" x2="834.5" y2="1080.5"/><line class="cls-2" x1="601.44" y1="0.22" x2="601.5" y2="1081.5"/><line class="cls-2" x1="357.44" y1="-0.78" x2="357.5" y2="1081.5"/><path d="M1323.53,940.38h-4.37l13.06-36.28h4.13l13,36.28h-4.59L1341,929.2h-13.72Zm10.72-31h-.14l-5.6,16.43h11.33Z"/><path d="M1355.66,940.38V912.47h4.15v4.42h.27q1.62-4.85,7.52-4.85a9.67,9.67,0,0,1,2.87.4,7.38,7.38,0,0,1,3.92,2.76,6.21,6.21,0,0,1,1,2.06h.21a8.47,8.47,0,0,1,3.09-3.76,9.3,9.3,0,0,1,5.39-1.46,9.68,9.68,0,0,1,6.81,2.25,8.33,8.33,0,0,1,2.44,6.44v19.65h-4.18V921.73a6.17,6.17,0,0,0-1.55-4.4,5.84,5.84,0,0,0-4.48-1.66,6.21,6.21,0,0,0-4.66,1.92,6.62,6.62,0,0,0-1.85,4.8v18h-4.15V922a6.34,6.34,0,0,0-1.69-4.57,6.61,6.61,0,0,0-9.13.14,6.65,6.65,0,0,0-1.81,4.77v18Z"/><path d="M1410.45,940.84a10.59,10.59,0,0,1-3.69-.63,8.42,8.42,0,0,1-2.88-1.73,8,8,0,0,1-1.85-2.7,8.82,8.82,0,0,1-.69-3.53,8.05,8.05,0,0,1,1.1-4.25,7.4,7.4,0,0,1,3.33-2.84,12.62,12.62,0,0,1,5.34-1h7.47v-2.86a5,5,0,0,0-1.63-4.12,6.94,6.94,0,0,0-4.57-1.35q-4.85,0-5.91,3.35h-4a6.83,6.83,0,0,1,3-5.31,12.59,12.59,0,0,1,7.14-1.79,11.65,11.65,0,0,1,7.38,2.23q2.85,2.24,2.85,6.94v19.17h-4.08v-3.76h-.14Q1415.94,940.85,1410.45,940.84Zm1-3.61a7.27,7.27,0,0,0,5-1.83,5.88,5.88,0,0,0,2-4.57v-3.24h-7.37a5.91,5.91,0,0,0-4.2,1.27,4.36,4.36,0,0,0-1.35,3.34,4.41,4.41,0,0,0,1.71,3.74A6.67,6.67,0,0,0,1411.5,937.23Z"/><path d="M1432.54,940.38V902.17h4.23v38.21Z"/><path d="M1446.26,903.78a3,3,0,0,1,.92-2.26,3.14,3.14,0,0,1,5.38,2.26,3.24,3.24,0,0,1-.4,1.64,2.7,2.7,0,0,1-1.14,1.08,3.33,3.33,0,0,1-1.61.38,3.08,3.08,0,0,1-2.23-.88A2.93,2.93,0,0,1,1446.26,903.78Zm1.08,36.6V912.47h4.17v27.91Z"/><path d="M1472.29,940.84c-3.65,0-6.5-1.09-8.57-3.28s-3.1-5.15-3.1-8.87v-4.52a12.24,12.24,0,0,1,3.17-8.81,11.74,11.74,0,0,1,16.36,0,12.19,12.19,0,0,1,3.17,8.81v3.42h-18.5V929a8.67,8.67,0,0,0,2,5.84,6.86,6.86,0,0,0,5.51,2.29,7.82,7.82,0,0,0,4.09-1,4.46,4.46,0,0,0,2.11-2.38h4.42a6.41,6.41,0,0,1-.93,2.35,10.49,10.49,0,0,1-2,2.27,9.35,9.35,0,0,1-3.26,1.78A13.63,13.63,0,0,1,1472.29,940.84Zm-7.47-16.48h14.28v-.48a9.89,9.89,0,0,0-.89-4.3,6.42,6.42,0,0,0-2.52-2.84,7,7,0,0,0-3.74-1,6.56,6.56,0,0,0-5.17,2.21,8.56,8.56,0,0,0-2,5.92Z"/><path d="M1525.29,936.52v3.86H1504.1V904.1h4.27v32.42Z"/><path d="M1541.7,940.84c-3.65,0-6.5-1.09-8.57-3.28s-3.1-5.15-3.1-8.87v-4.52a12.24,12.24,0,0,1,3.17-8.81,11.74,11.74,0,0,1,16.36,0,12.24,12.24,0,0,1,3.17,8.81v3.42h-18.5V929a8.67,8.67,0,0,0,2,5.84,6.86,6.86,0,0,0,5.51,2.29,7.82,7.82,0,0,0,4.09-1,4.46,4.46,0,0,0,2.11-2.38h4.42a6.41,6.41,0,0,1-.93,2.35,10.49,10.49,0,0,1-2,2.27,9.35,9.35,0,0,1-3.26,1.78A13.63,13.63,0,0,1,1541.7,940.84Zm-7.47-16.48h14.28v-.48a9.89,9.89,0,0,0-.89-4.3,6.48,6.48,0,0,0-2.52-2.84,7,7,0,0,0-3.74-1,6.56,6.56,0,0,0-5.17,2.21,8.56,8.56,0,0,0-2,5.92Z"/><path d="M1560.91,940.38V912.47h4.15v4.42h.27q1.61-4.85,7.52-4.85a9.67,9.67,0,0,1,2.87.4,7.38,7.38,0,0,1,3.92,2.76,6,6,0,0,1,1,2.06h.22a8.47,8.47,0,0,1,3.09-3.76,9.29,9.29,0,0,1,5.38-1.46,9.69,9.69,0,0,1,6.82,2.25,8.37,8.37,0,0,1,2.44,6.44v19.65h-4.18V921.73a6.17,6.17,0,0,0-1.55-4.4,5.84,5.84,0,0,0-4.48-1.66,6.21,6.21,0,0,0-4.66,1.92,6.62,6.62,0,0,0-1.86,4.8v18h-4.15V922a6.33,6.33,0,0,0-1.68-4.57,6.61,6.61,0,0,0-9.13.14,6.61,6.61,0,0,0-1.81,4.77v18Z"/><path d="M1612.5,930v10.42h-4.18V902.17h4.18v23.12h.14l11.8-12.82h4.93l-11.18,12.16,11.89,15.75h-5l-9.87-13.11Z"/><path d="M1646.43,940.84q-5.46,0-8.57-3.28a12.43,12.43,0,0,1-3.1-8.87v-4.52a12.2,12.2,0,0,1,3.18-8.81,11.72,11.72,0,0,1,16.35,0,12.2,12.2,0,0,1,3.18,8.81v3.42H1639V929a8.67,8.67,0,0,0,2,5.84,6.84,6.84,0,0,0,5.5,2.29,7.82,7.82,0,0,0,4.09-1,4.42,4.42,0,0,0,2.11-2.38h4.42a6.57,6.57,0,0,1-.92,2.35,10.49,10.49,0,0,1-2,2.27,9.44,9.44,0,0,1-3.26,1.78A13.69,13.69,0,0,1,1646.43,940.84ZM1639,924.36h14.29v-.48a9.75,9.75,0,0,0-.9-4.3,6.46,6.46,0,0,0-2.51-2.84,7,7,0,0,0-3.75-1,6.55,6.55,0,0,0-5.16,2.21,8.57,8.57,0,0,0-2,5.92Z"/><line class="cls-3" x1="1425" y1="978" x2="1424" y2="1082"/><line class="cls-2" x1="1424.51" y1="978.5" x2="1424.18" y2="1080.75"/><line class="cls-2" x1="1545.47" y1="978.8" x2="1545.14" y2="1081.05"/></svg>
